<svg xmlns="http://www.w3.org/2000/svg" viewBox="0 0 760 330" width="760" height="330" role="img" aria-labelledby="title desc">
  <title id="title">Maldición de la dimensionalidad</title>
  <desc id="desc">Diagrama de un cubo unitario con vecindad y curvas de distancia versus fracción del volumen para varias dimensiones.</desc>
  <defs>
    <marker id="gArrow" markerWidth="8" markerHeight="8" refX="7" refY="4" orient="auto">
      <path d="M0,0 L8,4 L0,8 z" fill="#7bbf5a"/>
    </marker>
  </defs>
  <rect x="0" y="0" width="760" height="330" fill="white"/>
  <text x="110" y="32" font-size="24" font-family="Arial, sans-serif" fill="#7bbf5a">Cubo unitario</text>
  <path d="M58 198 L188 198 L188 72 L58 72 Z M58 72 L132 28 L262 28 L188 72 M188 72 L262 28 L262 154 L188 198 M58 198 L132 154 L262 154" fill="none" stroke="#6b7280" stroke-width="2"/>
  <path d="M35 198 L82 198 L82 151 L35 151 Z M35 151 L62 134 L109 134 L82 151 M82 151 L109 134 L109 181 L82 198 M35 198 L62 181 L109 181" fill="none" stroke="#f59e0b" stroke-width="2.5"/>
  <text x="18" y="74" font-size="20" font-family="Arial, sans-serif" fill="#7bbf5a">1</text>
  <text x="20" y="206" font-size="20" font-family="Arial, sans-serif" fill="#7bbf5a">0</text>
  <text x="181" y="220" font-size="20" font-family="Arial, sans-serif" fill="#7bbf5a">1</text>
  <path d="M110 40 L122 28" stroke="#7bbf5a" stroke-width="2" marker-end="url(#gArrow)"/>
  <text x="18" y="292" font-size="18" font-family="Arial, sans-serif" fill="#7bbf5a">Vecindad</text>
  <path d="M98 270 L70 205" stroke="#7bbf5a" stroke-width="2" marker-end="url(#gArrow)"/>
  <line x1="405" y1="255" x2="706" y2="255" stroke="#374151" stroke-width="2"/>
  <line x1="405" y1="255" x2="405" y2="28" stroke="#374151" stroke-width="2"/>
  <line x1="455" y1="255" x2="455" y2="55" stroke="#93c5fd" stroke-dasharray="6 6"/>
  <line x1="532" y1="255" x2="532" y2="55" stroke="#93c5fd" stroke-dasharray="6 6"/>
  <text x="558" y="308" text-anchor="middle" font-size="20" font-family="Arial, sans-serif" fill="#111827">Fracción del volumen</text>
  <text x="352" y="160" transform="rotate(-90 352 160)" text-anchor="middle" font-size="20" font-family="Arial, sans-serif" fill="#111827">Distancia</text>
  <polyline points="420.0,255.0 424.2,126.8 428.3,117.6 432.5,112.0 436.7,107.8 440.8,104.5 445.0,101.7 449.2,99.3 453.3,97.2 457.5,95.4 461.7,93.7 465.8,92.1 470.0,90.7 474.2,89.4 478.3,88.1 482.5,87.0 486.7,85.9 490.8,84.9 495.0,83.9 499.2,83.0 503.3,82.1 507.5,81.2 511.7,80.4 515.8,79.6 520.0,78.9 524.2,78.2 528.3,77.5 532.5,76.8 536.7,76.2 540.8,75.5 545.0,74.9 549.2,74.3 553.3,73.8 557.5,73.2 561.7,72.7 565.8,72.1 570.0,71.6 574.2,71.1 578.3,70.6 582.5,70.1 586.7,69.7 590.8,69.2 595.0,68.8 599.2,68.3 603.3,67.9 607.5,67.5 611.7,67.1 615.8,66.7 620.0,66.3 624.2,65.9 628.3,65.5 632.5,65.1 636.7,64.7 640.8,64.4 645.0,64.0 649.2,63.7 653.3,63.3 657.5,63.0 661.7,62.7 665.8,62.3 670.0,62.0" fill="none" stroke="#34d399" stroke-width="3" opacity="0.95"/>
  <polyline points="420.0,255.0 424.2,205.7 428.3,192.9 432.5,183.9 436.7,176.7 440.8,170.7 445.0,165.4 449.2,160.7 453.3,156.4 457.5,152.5 461.7,148.8 465.8,145.4 470.0,142.1 474.2,139.1 478.3,136.2 482.5,133.4 486.7,130.8 490.8,128.2 495.0,125.8 499.2,123.4 503.3,121.2 507.5,119.0 511.7,116.9 515.8,114.8 520.0,112.8 524.2,110.8 528.3,109.0 532.5,107.1 536.7,105.3 540.8,103.5 545.0,101.8 549.2,100.1 553.3,98.5 557.5,96.9 561.7,95.3 565.8,93.7 570.0,92.2 574.2,90.7 578.3,89.3 582.5,87.8 586.7,86.4 590.8,85.0 595.0,83.6 599.2,82.3 603.3,81.0 607.5,79.6 611.7,78.4 615.8,77.1 620.0,75.8 624.2,74.6 628.3,73.4 632.5,72.2 636.7,71.0 640.8,69.8 645.0,68.7 649.2,67.5 653.3,66.4 657.5,65.3 661.7,64.2 665.8,63.1 670.0,62.0" fill="none" stroke="#34d399" stroke-width="3" opacity="0.90"/>
  <polyline points="420.0,255.0 424.2,230.1 428.3,219.8 432.5,211.8 436.7,205.2 440.8,199.3 445.0,194.0 449.2,189.1 453.3,184.5 457.5,180.3 461.7,176.2 465.8,172.4 470.0,168.7 474.2,165.2 478.3,161.8 482.5,158.5 486.7,155.3 490.8,152.3 495.0,149.3 499.2,146.4 503.3,143.6 507.5,140.8 511.7,138.1 515.8,135.5 520.0,132.9 524.2,130.4 528.3,128.0 532.5,125.5 536.7,123.2 540.8,120.8 545.0,118.5 549.2,116.3 553.3,114.1 557.5,111.9 561.7,109.7 565.8,107.6 570.0,105.5 574.2,103.4 578.3,101.4 582.5,99.4 586.7,97.4 590.8,95.5 595.0,93.5 599.2,91.6 603.3,89.7 607.5,87.9 611.7,86.0 615.8,84.2 620.0,82.4 624.2,80.6 628.3,78.8 632.5,77.1 636.7,75.3 640.8,73.6 645.0,71.9 649.2,70.2 653.3,68.5 657.5,66.9 661.7,65.2 665.8,63.6 670.0,62.0" fill="none" stroke="#34d399" stroke-width="3" opacity="0.82"/>
  <polyline points="420.0,255.0 424.2,251.8 428.3,248.6 432.5,245.3 436.7,242.1 440.8,238.9 445.0,235.7 449.2,232.5 453.3,229.3 457.5,226.1 461.7,222.8 465.8,219.6 470.0,216.4 474.2,213.2 478.3,210.0 482.5,206.8 486.7,203.5 490.8,200.3 495.0,197.1 499.2,193.9 503.3,190.7 507.5,187.4 511.7,184.2 515.8,181.0 520.0,177.8 524.2,174.6 528.3,171.4 532.5,168.1 536.7,164.9 540.8,161.7 545.0,158.5 549.2,155.3 553.3,152.1 557.5,148.8 561.7,145.6 565.8,142.4 570.0,139.2 574.2,136.0 578.3,132.8 582.5,129.6 586.7,126.3 590.8,123.1 595.0,119.9 599.2,116.7 603.3,113.5 607.5,110.2 611.7,107.0 615.8,103.8 620.0,100.6 624.2,97.4 628.3,94.2 632.5,91.0 636.7,87.7 640.8,84.5 645.0,81.3 649.2,78.1 653.3,74.9 657.5,71.7 661.7,68.4 665.8,65.2 670.0,62.0" fill="none" stroke="#34d399" stroke-width="3" opacity="0.72"/>
  <text x="664" y="66" font-size="16" font-family="Arial, sans-serif" fill="#111827">p=10</text>
  <text x="664" y="103" font-size="16" font-family="Arial, sans-serif" fill="#111827">p=3</text>
  <text x="664" y="123" font-size="16" font-family="Arial, sans-serif" fill="#111827">p=2</text>
  <text x="664" y="178" font-size="16" font-family="Arial, sans-serif" fill="#111827">p=1</text>
  <text x="448" y="275" font-size="16" font-family="Arial, sans-serif" fill="#111827">0.1</text>
  <text x="525" y="275" font-size="16" font-family="Arial, sans-serif" fill="#111827">0.5</text>
</svg>
