<svg xmlns="http://www.w3.org/2000/svg" viewBox="0 0 610 339" width="610" height="339" role="img" aria-labelledby="title desc">
<title id="title">Curse of Dimensionality</title>
<desc id="desc">Composite figure showing a unit cube with a small neighborhood and a curve plot where distance increases with fraction of volume for dimensions p=1,2,3,10.</desc>
<style><![CDATA[
.bg{fill:#fff;}
.black-bg{fill:#000;}
.axis{stroke:#111;stroke-width:2;fill:none;vector-effect:non-scaling-stroke;stroke-linecap:butt;stroke-linejoin:miter;}
.thin-axis{stroke:#333;stroke-width:1.2;fill:none;vector-effect:non-scaling-stroke;stroke-linecap:butt;stroke-linejoin:miter;}
.grid{stroke:#9a9a9a;stroke-width:0.8;stroke-dasharray:1.5 2;fill:none;vector-effect:non-scaling-stroke;stroke-linecap:butt;stroke-linejoin:miter;}
.text{font-family:Arial,Helvetica,sans-serif;fill:#111;font-size:14px;}
.small{font-size:12px;}
.tiny{font-size:10px;}
.serif{font-family:'Times New Roman',Times,serif;}
.math{font-family:'Times New Roman',Times,serif;font-style:italic;}
.boundary{stroke:#666;stroke-width:2;fill:none;vector-effect:non-scaling-stroke;stroke-linecap:butt;stroke-linejoin:miter;}
.blue-point{stroke:#78b6d6;stroke-width:2;fill:none;vector-effect:non-scaling-stroke;stroke-linecap:butt;stroke-linejoin:miter;}
.orange-point{stroke:#d7ab4a;stroke-width:2;fill:none;vector-effect:non-scaling-stroke;stroke-linecap:butt;stroke-linejoin:miter;}
.curve-red{stroke:#d06f62;stroke-width:2;fill:none;vector-effect:non-scaling-stroke;stroke-linecap:butt;stroke-linejoin:miter;}
.curve-cyan{stroke:#55d6d6;stroke-width:2;fill:none;vector-effect:non-scaling-stroke;stroke-linecap:butt;stroke-linejoin:miter;}
]]></style>
<metadata type="application/json"><![CDATA[
{
  "figure_id": "fig-0016-curse-dimensionality",
  "source_page": 16,
  "classification": "composite_diagram_and_line_chart",
  "conversion_strategy": "semantic_svg_reconstruction",
  "main_features": [
    "unit cube with small neighborhood",
    "distance-versus-fraction-of-volume curves for p=1,2,3,10"
  ]
}
]]></metadata>
<rect x="0.00" y="0.00" width="610.00" height="339.00" class="bg" style="" /><line class="thin-axis" x1="68.00" y1="205.00" x2="198.00" y2="205.00" style="stroke:#777;stroke-width:1.5"/><line class="thin-axis" x1="198.00" y1="205.00" x2="198.00" y2="75.00" style="stroke:#777;stroke-width:1.5"/><line class="thin-axis" x1="198.00" y1="75.00" x2="68.00" y2="75.00" style="stroke:#777;stroke-width:1.5"/><line class="thin-axis" x1="68.00" y1="75.00" x2="68.00" y2="205.00" style="stroke:#777;stroke-width:1.5"/><line class="thin-axis" x1="138.00" y1="165.00" x2="268.00" y2="165.00" style="stroke:#777;stroke-width:1.5"/><line class="thin-axis" x1="268.00" y1="165.00" x2="268.00" y2="35.00" style="stroke:#777;stroke-width:1.5"/><line class="thin-axis" x1="268.00" y1="35.00" x2="138.00" y2="35.00" style="stroke:#777;stroke-width:1.5"/><line class="thin-axis" x1="138.00" y1="35.00" x2="138.00" y2="165.00" style="stroke:#777;stroke-width:1.5"/><line class="thin-axis" x1="68.00" y1="205.00" x2="138.00" y2="165.00" style="stroke:#777;stroke-width:1.5"/><line class="thin-axis" x1="198.00" y1="205.00" x2="268.00" y2="165.00" style="stroke:#777;stroke-width:1.5"/><line class="thin-axis" x1="198.00" y1="75.00" x2="268.00" y2="35.00" style="stroke:#777;stroke-width:1.5"/><line class="thin-axis" x1="68.00" y1="75.00" x2="138.00" y2="35.00" style="stroke:#777;stroke-width:1.5"/><polyline points="95.00,160.00 137.00,160.00 137.00,118.00 95.00,118.00 95.00,160.00" class="" style="fill:none;stroke:#e5b659;stroke-width:2;vector-effect:non-scaling-stroke;stroke-linecap:butt;stroke-linejoin:miter;"/><polyline points="115.00,147.00 157.00,147.00 157.00,105.00 115.00,105.00 115.00,147.00" class="" style="fill:none;stroke:#e5b659;stroke-width:2;vector-effect:non-scaling-stroke;stroke-linecap:butt;stroke-linejoin:miter;"/><line class="thin-axis" x1="95.00" y1="160.00" x2="115.00" y2="147.00" style="stroke:#e5b659;stroke-width:2"/><line class="thin-axis" x1="137.00" y1="160.00" x2="157.00" y2="147.00" style="stroke:#e5b659;stroke-width:2"/><line class="thin-axis" x1="137.00" y1="118.00" x2="157.00" y2="105.00" style="stroke:#e5b659;stroke-width:2"/><line class="thin-axis" x1="95.00" y1="118.00" x2="115.00" y2="105.00" style="stroke:#e5b659;stroke-width:2"/><text class="text small" x="164.00" y="25.00" text-anchor="middle" style="fill:#59c572">Unit Cube</text><line class="thin-axis" x1="178.00" y1="38.00" x2="200.00" y2="55.00" style="stroke:#59c572;stroke-width:1.5"/><text class="text small" x="80.00" y="310.00" text-anchor="middle" style="fill:#59c572">Neighborhood</text><line class="thin-axis" x1="110.00" y1="286.00" x2="112.00" y2="220.00" style="stroke:#59c572;stroke-width:1.5"/><text class="text small" x="58.00" y="70.00" text-anchor="middle" style="fill:#59c572">1</text><text class="text small" x="60.00" y="260.00" text-anchor="middle" style="fill:#59c572">0</text><text class="text small" x="240.00" y="245.00" text-anchor="middle" style="fill:#59c572">1</text><line class="axis" x1="330.00" y1="280.00" x2="560.00" y2="280.00" /><line class="axis" x1="330.00" y1="38.00" x2="330.00" y2="280.00" /><line class="axis" x1="325.00" y1="280.00" x2="330.00" y2="280.00" /><text class="text tiny" x="318.00" y="284.00" text-anchor="end" style="fill:#333">0.0</text><line class="axis" x1="325.00" y1="231.60" x2="330.00" y2="231.60" /><text class="text tiny" x="318.00" y="235.60" text-anchor="end" style="fill:#333">0.2</text><line class="axis" x1="325.00" y1="183.20" x2="330.00" y2="183.20" /><text class="text tiny" x="318.00" y="187.20" text-anchor="end" style="fill:#333">0.4</text><line class="axis" x1="325.00" y1="134.80" x2="330.00" y2="134.80" /><text class="text tiny" x="318.00" y="138.80" text-anchor="end" style="fill:#333">0.6</text><line class="axis" x1="325.00" y1="86.40" x2="330.00" y2="86.40" /><text class="text tiny" x="318.00" y="90.40" text-anchor="end" style="fill:#333">0.8</text><line class="axis" x1="325.00" y1="38.00" x2="330.00" y2="38.00" /><text class="text tiny" x="318.00" y="42.00" text-anchor="end" style="fill:#333">1.0</text><line class="axis" x1="330.00" y1="280.00" x2="330.00" y2="285.00" /><text class="text tiny" x="330.00" y="298.00" text-anchor="middle" style="fill:#333">0.0</text><line class="axis" x1="406.67" y1="280.00" x2="406.67" y2="285.00" /><text class="text tiny" x="406.67" y="298.00" text-anchor="middle" style="fill:#333">0.2</text><line class="axis" x1="483.33" y1="280.00" x2="483.33" y2="285.00" /><text class="text tiny" x="483.33" y="298.00" text-anchor="middle" style="fill:#333">0.4</text><line class="axis" x1="560.00" y1="280.00" x2="560.00" y2="285.00" /><text class="text tiny" x="560.00" y="298.00" text-anchor="middle" style="fill:#333">0.6</text><text class="text small" x="445.00" y="320.00" text-anchor="middle" style="fill:#333">Fraction of Volume</text><text class="text small" x="285.00" y="159.00" text-anchor="middle" style="fill:#333" transform="rotate(-90 285 159.0)">Distance</text><polyline points="330.38,279.76 332.31,278.54 334.24,277.32 336.17,276.10 338.10,274.89 340.03,273.67 341.96,272.45 343.89,271.23 345.82,270.01 347.75,268.79 349.68,267.58 351.61,266.36 353.54,265.14 355.47,263.92 357.40,262.70 359.33,261.49 361.26,260.27 363.19,259.05 365.12,257.83 367.04,256.61 368.97,255.40 370.90,254.18 372.83,252.96 374.76,251.74 376.69,250.52 378.62,249.30 380.55,248.09 382.48,246.87 384.41,245.65 386.34,244.43 388.27,243.21 390.20,242.00 392.13,240.78 394.06,239.56 395.99,238.34 397.92,237.12 399.85,235.91 401.78,234.69 403.71,233.47 405.64,232.25 407.57,231.03 409.49,229.81 411.42,228.60 413.35,227.38 415.28,226.16 417.21,224.94 419.14,223.72 421.07,222.51 423.00,221.29 424.93,220.07 426.86,218.85 428.79,217.63 430.72,216.42 432.65,215.20 434.58,213.98 436.51,212.76 438.44,211.54 440.37,210.32 442.30,209.11 444.23,207.89 446.16,206.67 448.09,205.45 450.02,204.23 451.95,203.02 453.87,201.80 455.80,200.58 457.73,199.36 459.66,198.14 461.59,196.92 463.52,195.71 465.45,194.49 467.38,193.27 469.31,192.05 471.24,190.83 473.17,189.62 475.10,188.40 477.03,187.18 478.96,185.96 480.89,184.74 482.82,183.53 484.75,182.31 486.68,181.09 488.61,179.87 490.54,178.65 492.47,177.43 494.40,176.22 496.32,175.00 498.25,173.78 500.18,172.56 502.11,171.34 504.04,170.13 505.97,168.91 507.90,167.69 509.83,166.47 511.76,165.25 513.69,164.04 515.62,162.82 517.55,161.60 519.48,160.38 521.41,159.16 523.34,157.94 525.27,156.73 527.20,155.51 529.13,154.29 531.06,153.07 532.99,151.85 534.92,150.64 536.85,149.42 538.77,148.20 540.70,146.98 542.63,145.76 544.56,144.55 546.49,143.33 548.42,142.11 550.35,140.89 552.28,139.67 554.21,138.45 556.14,137.24 558.07,136.02 560.00,134.80" class="" style="fill:none;stroke:#77cdbc;stroke-width:2;vector-effect:non-scaling-stroke;stroke-linecap:butt;stroke-linejoin:miter;"/><text class="text tiny" x="552.67" y="148.48" text-anchor="start" style="fill:#333">p=1</text><polyline points="330.38,272.35 332.31,261.20 334.24,254.54 336.17,249.29 338.10,244.82 340.03,240.85 341.96,237.25 343.89,233.93 345.82,230.84 347.75,227.93 349.68,225.17 351.61,222.54 353.54,220.03 355.47,217.62 357.40,215.30 359.33,213.06 361.26,210.90 363.19,208.80 365.12,206.76 367.04,204.77 368.97,202.84 370.90,200.95 372.83,199.11 374.76,197.30 376.69,195.54 378.62,193.81 380.55,192.12 382.48,190.46 384.41,188.83 386.34,187.22 388.27,185.65 390.20,184.10 392.13,182.57 394.06,181.07 395.99,179.59 397.92,178.14 399.85,176.70 401.78,175.28 403.71,173.88 405.64,172.50 407.57,171.14 409.49,169.80 411.42,168.47 413.35,167.15 415.28,165.85 417.21,164.57 419.14,163.30 421.07,162.04 423.00,160.80 424.93,159.57 426.86,158.35 428.79,157.15 430.72,155.95 432.65,154.77 434.58,153.60 436.51,152.44 438.44,151.29 440.37,150.15 442.30,149.02 444.23,147.90 446.16,146.79 448.09,145.68 450.02,144.59 451.95,143.51 453.87,142.43 455.80,141.36 457.73,140.31 459.66,139.25 461.59,138.21 463.52,137.18 465.45,136.15 467.38,135.13 469.31,134.11 471.24,133.11 473.17,132.11 475.10,131.11 477.03,130.13 478.96,129.14 480.89,128.17 482.82,127.20 484.75,126.24 486.68,125.29 488.61,124.34 490.54,123.39 492.47,122.45 494.40,121.52 496.32,120.59 498.25,119.67 500.18,118.75 502.11,117.84 504.04,116.94 505.97,116.04 507.90,115.14 509.83,114.25 511.76,113.36 513.69,112.48 515.62,111.60 517.55,110.73 519.48,109.86 521.41,109.00 523.34,108.14 525.27,107.28 527.20,106.43 529.13,105.58 531.06,104.74 532.99,103.90 534.92,103.06 536.85,102.23 538.77,101.41 540.70,100.58 542.63,99.76 544.56,98.95 546.49,98.13 548.42,97.33 550.35,96.52 552.28,95.72 554.21,94.92 556.14,94.13 558.07,93.34 560.00,92.55" class="" style="fill:none;stroke:#77cdbc;stroke-width:2;vector-effect:non-scaling-stroke;stroke-linecap:butt;stroke-linejoin:miter;"/><text class="text tiny" x="552.67" y="102.90" text-anchor="start" style="fill:#333">p=2</text><polyline points="330.38,255.80 332.31,235.94 334.24,226.07 336.17,218.89 338.10,213.09 340.03,208.15 341.96,203.81 343.89,199.92 345.82,196.37 347.75,193.10 349.68,190.06 351.61,187.21 353.54,184.53 355.47,181.99 357.40,179.57 359.33,177.27 361.26,175.06 363.19,172.95 365.12,170.91 367.04,168.95 368.97,167.05 370.90,165.22 372.83,163.44 374.76,161.72 376.69,160.04 378.62,158.41 380.55,156.82 382.48,155.27 384.41,153.76 386.34,152.29 388.27,150.85 390.20,149.44 392.13,148.06 394.06,146.70 395.99,145.38 397.92,144.08 399.85,142.80 401.78,141.55 403.71,140.32 405.64,139.11 407.57,137.93 409.49,136.76 411.42,135.61 413.35,134.48 415.28,133.36 417.21,132.26 419.14,131.18 421.07,130.12 423.00,129.07 424.93,128.03 426.86,127.01 428.79,126.00 430.72,125.00 432.65,124.02 434.58,123.05 436.51,122.09 438.44,121.14 440.37,120.20 442.30,119.28 444.23,118.36 446.16,117.46 448.09,116.56 450.02,115.68 451.95,114.80 453.87,113.93 455.80,113.07 457.73,112.23 459.66,111.39 461.59,110.55 463.52,109.73 465.45,108.91 467.38,108.10 469.31,107.30 471.24,106.51 473.17,105.72 475.10,104.94 477.03,104.17 478.96,103.40 480.89,102.65 482.82,101.89 484.75,101.15 486.68,100.41 488.61,99.67 490.54,98.94 492.47,98.22 494.40,97.50 496.32,96.79 498.25,96.09 500.18,95.39 502.11,94.69 504.04,94.00 505.97,93.32 507.90,92.64 509.83,91.96 511.76,91.29 513.69,90.63 515.62,89.97 517.55,89.31 519.48,88.66 521.41,88.01 523.34,87.37 525.27,86.73 527.20,86.09 529.13,85.46 531.06,84.84 532.99,84.22 534.92,83.60 536.85,82.98 538.77,82.37 540.70,81.76 542.63,81.16 544.56,80.56 546.49,79.97 548.42,79.37 550.35,78.78 552.28,78.20 554.21,77.62 556.14,77.04 558.07,76.46 560.00,75.89" class="" style="fill:none;stroke:#77cdbc;stroke-width:2;vector-effect:non-scaling-stroke;stroke-linecap:butt;stroke-linejoin:miter;"/><text class="text tiny" x="552.67" y="84.53" text-anchor="start" style="fill:#333">p=3</text><polyline points="330.38,158.71 332.31,134.83 334.24,125.75 336.17,119.86 338.10,115.44 340.03,111.89 341.96,108.91 343.89,106.33 345.82,104.05 347.75,102.02 349.68,100.17 351.61,98.48 353.54,96.92 355.47,95.47 357.40,94.12 359.33,92.85 361.26,91.66 363.19,90.52 365.12,89.45 367.04,88.43 368.97,87.45 370.90,86.52 372.83,85.63 374.76,84.77 376.69,83.94 378.62,83.15 380.55,82.38 382.48,81.64 384.41,80.92 386.34,80.23 388.27,79.55 390.20,78.90 392.13,78.26 394.06,77.64 395.99,77.04 397.92,76.46 399.85,75.89 401.78,75.33 403.71,74.79 405.64,74.25 407.57,73.74 409.49,73.23 411.42,72.73 413.35,72.25 415.28,71.77 417.21,71.30 419.14,70.85 421.07,70.40 423.00,69.96 424.93,69.53 426.86,69.10 428.79,68.69 430.72,68.28 432.65,67.87 434.58,67.48 436.51,67.09 438.44,66.71 440.37,66.33 442.30,65.96 444.23,65.60 446.16,65.24 448.09,64.88 450.02,64.53 451.95,64.19 453.87,63.85 455.80,63.52 457.73,63.19 459.66,62.86 461.59,62.54 463.52,62.22 465.45,61.91 467.38,61.60 469.31,61.30 471.24,61.00 473.17,60.70 475.10,60.40 477.03,60.11 478.96,59.83 480.89,59.54 482.82,59.26 484.75,58.99 486.68,58.71 488.61,58.44 490.54,58.17 492.47,57.91 494.40,57.65 496.32,57.39 498.25,57.13 500.18,56.87 502.11,56.62 504.04,56.37 505.97,56.13 507.90,55.88 509.83,55.64 511.76,55.40 513.69,55.16 515.62,54.93 517.55,54.70 519.48,54.47 521.41,54.24 523.34,54.01 525.27,53.79 527.20,53.56 529.13,53.34 531.06,53.12 532.99,52.91 534.92,52.69 536.85,52.48 538.77,52.27 540.70,52.06 542.63,51.85 544.56,51.64 546.49,51.44 548.42,51.24 550.35,51.03 552.28,50.84 554.21,50.64 556.14,50.44 558.07,50.25 560.00,50.05" class="" style="fill:none;stroke:#77cdbc;stroke-width:2;vector-effect:non-scaling-stroke;stroke-linecap:butt;stroke-linejoin:miter;"/><text class="text tiny" x="552.67" y="55.63" text-anchor="start" style="fill:#333">p=10</text><line class="grid" x1="368.33" y1="38.00" x2="368.33" y2="280.00" style="stroke:#9ad4e4;stroke-dasharray:4 3"/></svg>
