<svg xmlns="http://www.w3.org/2000/svg" viewBox="0 0 425 325" width="425" height="325" role="img" aria-labelledby="title desc">
<title id="title">Gaussian surface plot</title>
<desc id="desc">Three-dimensional bell-shaped surface with rainbow height bands, axes x1 and x2, and vertical density scale up to about 0.3.</desc>
<style><![CDATA[
.bg{fill:#fff;}
.black-bg{fill:#000;}
.axis{stroke:#111;stroke-width:2;fill:none;vector-effect:non-scaling-stroke;stroke-linecap:butt;stroke-linejoin:miter;}
.thin-axis{stroke:#333;stroke-width:1.2;fill:none;vector-effect:non-scaling-stroke;stroke-linecap:butt;stroke-linejoin:miter;}
.grid{stroke:#9a9a9a;stroke-width:0.8;stroke-dasharray:1.5 2;fill:none;vector-effect:non-scaling-stroke;stroke-linecap:butt;stroke-linejoin:miter;}
.text{font-family:Arial,Helvetica,sans-serif;fill:#111;font-size:14px;}
.small{font-size:12px;}
.tiny{font-size:10px;}
.serif{font-family:'Times New Roman',Times,serif;}
.math{font-family:'Times New Roman',Times,serif;font-style:italic;}
.boundary{stroke:#666;stroke-width:2;fill:none;vector-effect:non-scaling-stroke;stroke-linecap:butt;stroke-linejoin:miter;}
.blue-point{stroke:#78b6d6;stroke-width:2;fill:none;vector-effect:non-scaling-stroke;stroke-linecap:butt;stroke-linejoin:miter;}
.orange-point{stroke:#d7ab4a;stroke-width:2;fill:none;vector-effect:non-scaling-stroke;stroke-linecap:butt;stroke-linejoin:miter;}
.curve-red{stroke:#d06f62;stroke-width:2;fill:none;vector-effect:non-scaling-stroke;stroke-linecap:butt;stroke-linejoin:miter;}
.curve-cyan{stroke:#55d6d6;stroke-width:2;fill:none;vector-effect:non-scaling-stroke;stroke-linecap:butt;stroke-linejoin:miter;}
]]></style>
<metadata type="application/json"><![CDATA[
{
  "figure_id": "fig-0047-gaussian-surface",
  "source_page": 47,
  "classification": "surface_plot",
  "conversion_strategy": "mathematical_svg_reconstruction",
  "main_features": [
    "3D Gaussian-like mound",
    "rainbow height bands",
    "wireframe box"
  ]
}
]]></metadata>
<rect x="0.00" y="0.00" width="425.00" height="325.00" class="bg" style="" /><line class="thin-axis" x1="168.00" y1="288.00" x2="384.00" y2="216.00" style="stroke:#555;stroke-width:1"/><line class="thin-axis" x1="168.00" y1="288.00" x2="36.00" y2="204.00" style="stroke:#555;stroke-width:1"/><line class="thin-axis" x1="384.00" y1="216.00" x2="252.00" y2="132.00" style="stroke:#555;stroke-width:1"/><line class="thin-axis" x1="36.00" y1="204.00" x2="252.00" y2="132.00" style="stroke:#555;stroke-width:1"/><line class="thin-axis" x1="168.00" y1="288.00" x2="168.00" y2="172.80" style="stroke:#555;stroke-width:1"/><line class="thin-axis" x1="36.00" y1="204.00" x2="36.00" y2="88.80" style="stroke:#555;stroke-width:1"/><line class="thin-axis" x1="252.00" y1="132.00" x2="252.00" y2="16.80" style="stroke:#555;stroke-width:1"/><line class="thin-axis" x1="168.00" y1="172.80" x2="384.00" y2="100.80" style="stroke:#555;stroke-width:1"/><line class="thin-axis" x1="168.00" y1="172.80" x2="36.00" y2="88.80" style="stroke:#555;stroke-width:1"/><line class="thin-axis" x1="252.00" y1="16.80" x2="36.00" y2="88.80" style="stroke:#555;stroke-width:1"/><line class="thin-axis" x1="252.00" y1="16.80" x2="384.00" y2="100.80" style="stroke:#555;stroke-width:1"/><polygon points="303.60,171.93 298.76,169.14 293.36,166.56 287.43,164.21 281.01,162.11 274.14,160.27 266.87,158.70 259.24,157.41 251.30,156.41 243.09,155.70 234.68,155.30 226.11,155.19 217.44,155.39 208.72,155.90 200.01,156.70 191.36,157.79 182.83,159.17 174.47,160.83 166.34,162.76 158.48,164.94 150.95,167.36 143.79,170.01 137.05,172.87 130.77,175.92 125.00,179.14 119.76,182.51 115.09,186.02 111.02,189.63 107.57,193.33 104.78,197.08 102.65,200.88 101.20,204.69 100.43,208.50 100.36,212.26 100.98,215.97 102.29,219.60 104.29,223.13 106.95,226.53 110.26,229.78 114.20,232.86 118.75,235.75 123.87,238.44 129.54,240.91 135.72,243.13 142.37,245.11 149.44,246.81 156.90,248.25 164.70,249.39 172.78,250.25 181.09,250.80 189.59,251.06 198.22,251.01 206.92,250.66 215.64,250.01 224.33,249.06 232.92,247.82 241.37,246.30 249.63,244.50 257.63,242.45 265.33,240.15 272.68,237.61 279.63,234.85 286.15,231.90 292.18,228.76 297.69,225.46 302.65,222.02 307.02,218.45 310.78,214.80 313.91,211.07 316.37,207.28 318.16,203.48 319.27,199.67 319.69,195.88 319.42,192.14 318.45,188.46 316.80,184.88 314.47,181.42 311.48,178.09 307.85,174.92 303.60,171.93 297.12,173.84 301.07,176.62 304.45,179.57 307.23,182.67 309.40,185.89 310.94,189.23 311.84,192.64 312.10,196.13 311.71,199.65 310.68,203.20 309.01,206.74 306.71,210.26 303.81,213.74 300.31,217.14 296.24,220.46 291.62,223.66 286.49,226.73 280.87,229.65 274.81,232.40 268.34,234.97 261.50,237.33 254.33,239.47 246.88,241.39 239.20,243.06 231.34,244.47 223.34,245.63 215.25,246.51 207.13,247.11 199.03,247.44 191.00,247.49 183.09,247.25 175.35,246.73 167.83,245.94 160.58,244.87 153.64,243.54 147.05,241.95 140.86,240.11 135.11,238.04 129.84,235.75 125.07,233.24 120.83,230.55 117.16,227.68 114.08,224.66 111.60,221.49 109.75,218.21 108.53,214.83 107.95,211.38 108.02,207.87 108.73,204.33 110.08,200.79 112.06,197.25 114.67,193.75 117.87,190.31 121.66,186.95 126.00,183.69 130.88,180.55 136.26,177.55 142.10,174.71 148.38,172.05 155.04,169.58 162.05,167.33 169.36,165.30 176.93,163.51 184.71,161.96 192.65,160.68 200.70,159.66 208.81,158.91 216.92,158.45 224.99,158.26 232.97,158.36 240.80,158.73 248.44,159.39 255.83,160.32 262.93,161.52 269.70,162.98 276.10,164.70 282.07,166.65 287.59,168.84 292.61,171.24 297.12,173.84" style="fill:#0b1ab2;stroke:#222;stroke-width:0.3;vector-effect:non-scaling-stroke;stroke-linecap:butt;stroke-linejoin:miter;"/><polygon points="297.12,166.72 292.61,164.12 287.59,161.72 282.07,159.53 276.10,157.58 269.70,155.86 262.93,154.40 255.83,153.20 248.44,152.27 240.80,151.61 232.97,151.24 224.99,151.14 216.92,151.33 208.81,151.79 200.70,152.54 192.65,153.56 184.71,154.84 176.93,156.39 169.36,158.18 162.05,160.21 155.04,162.46 148.38,164.93 142.10,167.59 136.26,170.43 130.88,173.43 126.00,176.57 121.66,179.83 117.87,183.19 114.67,186.63 112.06,190.13 110.08,193.67 108.73,197.21 108.02,200.75 107.95,204.26 108.53,207.71 109.75,211.09 111.60,214.37 114.08,217.53 117.16,220.56 120.83,223.43 125.07,226.12 129.84,228.63 135.11,230.92 140.86,232.99 147.05,234.83 153.64,236.42 160.58,237.75 167.83,238.82 175.35,239.61 183.09,240.13 191.00,240.37 199.03,240.32 207.13,239.99 215.25,239.39 223.34,238.50 231.34,237.35 239.20,235.94 246.88,234.27 254.33,232.35 261.50,230.21 268.34,227.85 274.81,225.28 280.87,222.53 286.49,219.61 291.62,216.54 296.24,213.34 300.31,210.02 303.81,206.62 306.71,203.14 309.01,199.62 310.68,196.08 311.71,192.53 312.10,189.01 311.84,185.52 310.94,182.11 309.40,178.77 307.23,175.55 304.45,172.45 301.07,169.50 297.12,166.72 290.64,168.39 294.30,170.97 297.43,173.70 300.00,176.57 302.01,179.55 303.43,182.64 304.27,185.80 304.50,189.02 304.14,192.29 303.19,195.57 301.64,198.85 299.52,202.11 296.83,205.32 293.59,208.47 289.82,211.54 285.55,214.51 280.80,217.35 275.60,220.05 269.99,222.60 264.00,224.97 257.67,227.16 251.03,229.15 244.14,230.92 237.03,232.46 229.75,233.77 222.34,234.84 214.86,235.66 207.35,236.22 199.85,236.52 192.42,236.56 185.10,236.34 177.93,235.86 170.97,235.13 164.25,234.14 157.83,232.91 151.73,231.44 146.01,229.74 140.68,227.82 135.80,225.69 131.38,223.38 127.46,220.89 124.07,218.23 121.21,215.43 118.92,212.50 117.21,209.46 116.08,206.34 115.54,203.14 115.60,199.89 116.26,196.62 117.51,193.33 119.35,190.06 121.76,186.82 124.72,183.64 128.23,180.53 132.25,177.51 136.77,174.60 141.74,171.83 147.15,169.20 152.96,166.74 159.13,164.45 165.62,162.37 172.38,160.49 179.39,158.83 186.59,157.40 193.94,156.21 201.39,155.27 208.89,154.58 216.41,154.15 223.88,153.97 231.26,154.06 238.51,154.41 245.58,155.02 252.42,155.88 259.00,156.99 265.26,158.35 271.18,159.93 276.71,161.74 281.82,163.77 286.47,165.99 290.64,168.39" style="fill:#003fdd;stroke:#222;stroke-width:0.3;vector-effect:non-scaling-stroke;stroke-linecap:butt;stroke-linejoin:miter;"/><polygon points="290.64,161.03 286.47,158.62 281.82,156.40 276.71,154.38 271.18,152.57 265.26,150.98 259.00,149.63 252.42,148.52 245.58,147.66 238.51,147.05 231.26,146.70 223.88,146.61 216.41,146.78 208.89,147.21 201.39,147.90 193.94,148.85 186.59,150.04 179.39,151.46 172.38,153.12 165.62,155.00 159.13,157.09 152.96,159.37 147.15,161.84 141.74,164.46 136.77,167.24 132.25,170.14 128.23,173.16 124.72,176.28 121.76,179.46 119.35,182.70 117.51,185.97 116.26,189.26 115.60,192.53 115.54,195.78 116.08,198.97 117.21,202.10 118.92,205.14 121.21,208.07 124.07,210.87 127.46,213.52 131.38,216.02 135.80,218.33 140.68,220.45 146.01,222.37 151.73,224.07 157.83,225.54 164.25,226.78 170.97,227.76 177.93,228.50 185.10,228.98 192.42,229.20 199.85,229.16 207.35,228.85 214.86,228.29 222.34,227.48 229.75,226.41 237.03,225.10 244.14,223.55 251.03,221.78 257.67,219.80 264.00,217.61 269.99,215.24 275.60,212.69 280.80,209.99 285.55,207.14 289.82,204.18 293.59,201.11 296.83,197.96 299.52,194.74 301.64,191.49 303.19,188.21 304.14,184.92 304.50,181.66 304.27,178.44 303.43,175.27 302.01,172.19 300.00,169.20 297.43,166.34 294.30,163.61 290.64,161.03 284.16,162.50 287.53,164.86 290.40,167.38 292.77,170.01 294.61,172.76 295.92,175.59 296.69,178.50 296.91,181.47 296.58,184.47 295.70,187.49 294.28,190.50 292.32,193.50 289.85,196.46 286.87,199.36 283.41,202.18 279.48,204.90 275.11,207.52 270.33,210.00 265.17,212.35 259.66,214.53 253.84,216.54 247.74,218.37 241.40,219.99 234.86,221.42 228.16,222.62 221.35,223.60 214.47,224.35 207.56,224.87 200.67,225.15 193.83,225.19 187.10,224.98 180.51,224.54 174.11,223.87 167.93,222.96 162.02,221.82 156.42,220.47 151.15,218.91 146.25,217.14 141.76,215.19 137.70,213.06 134.10,210.77 130.97,208.33 128.35,205.75 126.24,203.06 124.66,200.27 123.62,197.39 123.13,194.45 123.19,191.47 123.79,188.45 124.94,185.43 126.63,182.42 128.85,179.45 131.58,176.52 134.80,173.65 138.50,170.88 142.65,168.20 147.23,165.65 152.20,163.24 157.54,160.97 163.21,158.87 169.18,156.95 175.41,155.22 181.85,153.70 188.47,152.38 195.23,151.29 202.08,150.42 208.98,149.79 215.89,149.39 222.76,149.23 229.55,149.32 236.22,149.64 242.72,150.20 249.01,150.99 255.06,152.01 260.82,153.26 266.26,154.71 271.35,156.38 276.05,158.24 280.32,160.28 284.16,162.50" style="fill:#0073ff;stroke:#222;stroke-width:0.3;vector-effect:non-scaling-stroke;stroke-linecap:butt;stroke-linejoin:miter;"/><polygon points="284.16,154.90 280.32,152.69 276.05,150.64 271.35,148.78 266.26,147.12 260.82,145.66 255.06,144.42 249.01,143.39 242.72,142.60 236.22,142.04 229.55,141.72 222.76,141.64 215.89,141.80 208.98,142.19 202.08,142.83 195.23,143.70 188.47,144.79 181.85,146.10 175.41,147.63 169.18,149.36 163.21,151.28 157.54,153.38 152.20,155.64 147.23,158.06 142.65,160.61 138.50,163.28 134.80,166.06 131.58,168.92 128.85,171.85 126.63,174.83 124.94,177.84 123.79,180.86 123.19,183.87 123.13,186.86 123.62,189.80 124.66,192.67 126.24,195.46 128.35,198.16 130.97,200.73 134.10,203.17 137.70,205.47 141.76,207.60 146.25,209.55 151.15,211.31 156.42,212.88 162.02,214.23 167.93,215.36 174.11,216.27 180.51,216.95 187.10,217.39 193.83,217.59 200.67,217.55 207.56,217.27 214.47,216.76 221.35,216.01 228.16,215.03 234.86,213.82 241.40,212.40 247.74,210.77 253.84,208.95 259.66,206.94 265.17,204.75 270.33,202.41 275.11,199.92 279.48,197.31 283.41,194.58 286.87,191.76 289.85,188.86 292.32,185.91 294.28,182.91 295.70,179.89 296.58,176.87 296.91,173.87 296.69,170.91 295.92,168.00 294.61,165.16 292.77,162.42 290.40,159.78 287.53,157.27 284.16,154.90 277.68,156.19 280.75,158.35 283.38,160.64 285.54,163.05 287.22,165.55 288.42,168.14 289.12,170.80 289.31,173.50 289.01,176.24 288.21,179.00 286.91,181.75 285.13,184.48 282.87,187.18 280.16,189.83 276.99,192.40 273.41,194.89 269.42,197.27 265.06,199.54 260.35,201.68 255.32,203.67 250.01,205.51 244.44,207.18 238.65,208.66 232.69,209.96 226.58,211.06 220.36,211.95 214.08,212.64 207.77,213.11 201.48,213.36 195.24,213.40 189.10,213.21 183.09,212.81 177.24,212.20 171.61,211.37 166.21,210.33 161.10,209.10 156.29,207.67 151.82,206.06 147.72,204.28 144.02,202.33 140.73,200.24 137.88,198.01 135.48,195.66 133.56,193.21 132.12,190.66 131.17,188.03 130.72,185.35 130.77,182.62 131.33,179.88 132.38,177.12 133.92,174.37 135.94,171.65 138.43,168.98 141.37,166.37 144.75,163.84 148.54,161.40 152.71,159.07 157.25,156.86 162.13,154.80 167.30,152.88 172.75,151.13 178.43,149.55 184.31,148.16 190.35,146.96 196.52,145.96 202.77,145.17 209.07,144.59 215.38,144.23 221.65,144.08 227.84,144.16 233.93,144.45 239.86,144.96 245.60,145.69 251.12,146.62 256.38,147.75 261.35,149.09 265.99,150.60 270.27,152.30 274.18,154.17 277.68,156.19" style="fill:#00a0ff;stroke:#222;stroke-width:0.3;vector-effect:non-scaling-stroke;stroke-linecap:butt;stroke-linejoin:miter;"/><polygon points="277.68,148.37 274.18,146.35 270.27,144.49 265.99,142.79 261.35,141.27 256.38,139.94 251.12,138.80 245.60,137.87 239.86,137.15 233.93,136.64 227.84,136.34 221.65,136.27 215.38,136.41 209.07,136.78 202.77,137.36 196.52,138.15 190.35,139.15 184.31,140.34 178.43,141.74 172.75,143.31 167.30,145.07 162.13,146.98 157.25,149.05 152.71,151.25 148.54,153.58 144.75,156.02 141.37,158.56 138.43,161.17 135.94,163.84 133.92,166.56 132.38,169.31 131.33,172.06 130.77,174.81 130.72,177.54 131.17,180.22 132.12,182.84 133.56,185.39 135.48,187.85 137.88,190.20 140.73,192.43 144.02,194.52 147.72,196.46 151.82,198.25 156.29,199.86 161.10,201.28 166.21,202.52 171.61,203.55 177.24,204.38 183.09,205.00 189.10,205.40 195.24,205.59 201.48,205.55 207.77,205.30 214.08,204.83 220.36,204.14 226.58,203.24 232.69,202.14 238.65,200.85 244.44,199.36 250.01,197.70 255.32,195.86 260.35,193.87 265.06,191.73 269.42,189.46 273.41,187.08 276.99,184.59 280.16,182.01 282.87,179.37 285.13,176.67 286.91,173.93 288.21,171.18 289.01,168.43 289.31,165.69 289.12,162.98 288.42,160.33 287.22,157.74 285.54,155.23 283.38,152.83 280.75,150.54 277.68,148.37 271.20,149.51 273.98,151.47 276.35,153.54 278.31,155.72 279.83,157.98 280.91,160.32 281.54,162.72 281.72,165.17 281.45,167.65 280.72,170.14 279.55,172.63 277.94,175.10 275.90,177.54 273.44,179.93 270.58,182.26 267.34,184.51 263.73,186.67 259.79,188.72 255.53,190.65 250.98,192.45 246.18,194.11 241.14,195.62 235.91,196.96 230.51,198.14 224.99,199.13 219.37,199.94 213.69,200.56 207.99,200.99 202.30,201.22 196.66,201.25 191.10,201.08 185.66,200.72 180.38,200.16 175.28,199.41 170.41,198.47 165.78,197.36 161.43,196.07 157.39,194.61 153.69,193.00 150.34,191.24 147.36,189.35 144.78,187.33 142.62,185.21 140.88,182.99 139.58,180.68 138.72,178.31 138.31,175.88 138.36,173.42 138.86,170.93 139.81,168.44 141.20,165.96 143.03,163.50 145.28,161.08 147.94,158.72 151.00,156.43 154.42,154.22 158.20,152.12 162.30,150.12 166.71,148.25 171.39,146.52 176.31,144.94 181.45,143.51 186.77,142.25 192.23,141.17 197.81,140.27 203.47,139.55 209.16,139.03 214.86,138.70 220.53,138.57 226.14,138.64 231.64,138.90 237.00,139.36 242.19,140.02 247.19,140.86 251.94,141.89 256.43,143.09 260.63,144.47 264.50,146.00 268.04,147.69 271.20,149.51" style="fill:#00c8cb;stroke:#222;stroke-width:0.3;vector-effect:non-scaling-stroke;stroke-linecap:butt;stroke-linejoin:miter;"/><polygon points="271.20,141.50 268.04,139.67 264.50,137.98 260.63,136.45 256.43,135.07 251.94,133.87 247.19,132.84 242.19,132.00 237.00,131.35 231.64,130.88 226.14,130.62 220.53,130.55 214.86,130.68 209.16,131.01 203.47,131.53 197.81,132.25 192.23,133.15 186.77,134.24 181.45,135.50 176.31,136.92 171.39,138.51 166.71,140.24 162.30,142.11 158.20,144.10 154.42,146.21 151.00,148.41 147.94,150.70 145.28,153.07 143.03,155.48 141.20,157.94 139.81,160.42 138.86,162.92 138.36,165.40 138.31,167.87 138.72,170.29 139.58,172.67 140.88,174.97 142.62,177.19 144.78,179.32 147.36,181.33 150.34,183.23 153.69,184.98 157.39,186.59 161.43,188.05 165.78,189.34 170.41,190.46 175.28,191.39 180.38,192.14 185.66,192.70 191.10,193.06 196.66,193.23 202.30,193.20 207.99,192.97 213.69,192.54 219.37,191.92 224.99,191.11 230.51,190.12 235.91,188.95 241.14,187.60 246.18,186.10 250.98,184.44 255.53,182.63 259.79,180.70 263.73,178.65 267.34,176.49 270.58,174.24 273.44,171.91 275.90,169.52 277.94,167.08 279.55,164.61 280.72,162.12 281.45,159.63 281.72,157.15 281.54,154.71 280.91,152.30 279.83,149.96 278.31,147.70 276.35,145.52 273.98,143.45 271.20,141.50 264.72,142.53 267.20,144.28 269.33,146.13 271.07,148.07 272.43,150.10 273.40,152.19 273.97,154.34 274.13,156.53 273.88,158.74 273.23,160.97 272.19,163.19 270.74,165.40 268.92,167.59 266.72,169.72 264.17,171.81 261.27,173.82 258.04,175.75 254.52,177.58 250.71,179.31 246.64,180.92 242.35,182.41 237.84,183.75 233.17,184.95 228.34,186.00 223.40,186.89 218.38,187.62 213.30,188.17 208.20,188.55 203.11,188.76 198.07,188.78 193.10,188.64 188.24,188.31 183.51,187.81 178.96,187.14 174.60,186.30 170.46,185.31 166.58,184.15 162.96,182.85 159.65,181.41 156.65,179.84 153.99,178.15 151.69,176.34 149.75,174.44 148.20,172.46 147.03,170.40 146.27,168.27 145.90,166.11 145.94,163.90 146.39,161.68 147.24,159.45 148.49,157.23 150.12,155.03 152.13,152.87 154.51,150.76 157.24,148.71 160.31,146.74 163.68,144.86 167.35,143.07 171.29,141.40 175.48,139.85 179.88,138.44 184.47,137.16 189.23,136.04 194.12,135.07 199.10,134.26 204.16,133.62 209.25,133.15 214.35,132.86 219.42,132.74 224.43,132.80 229.35,133.04 234.14,133.45 238.79,134.04 243.25,134.79 247.50,135.71 251.51,136.79 255.27,138.01 258.73,139.39 261.89,140.89 264.72,142.53" style="fill:#00c878;stroke:#222;stroke-width:0.3;vector-effect:non-scaling-stroke;stroke-linecap:butt;stroke-linejoin:miter;"/><polygon points="264.72,134.32 261.89,132.69 258.73,131.18 255.27,129.81 251.51,128.58 247.50,127.50 243.25,126.59 238.79,125.83 234.14,125.25 229.35,124.83 224.43,124.60 219.42,124.54 214.35,124.65 209.25,124.95 204.16,125.41 199.10,126.05 194.12,126.86 189.23,127.83 184.47,128.96 179.88,130.23 175.48,131.65 171.29,133.20 167.35,134.87 163.68,136.65 160.31,138.53 157.24,140.51 154.51,142.55 152.13,144.67 150.12,146.83 148.49,149.03 147.24,151.25 146.39,153.47 145.94,155.70 145.90,157.90 146.27,160.07 147.03,162.19 148.20,164.25 149.75,166.24 151.69,168.14 153.99,169.94 156.65,171.63 159.65,173.20 162.96,174.65 166.58,175.95 170.46,177.10 174.60,178.10 178.96,178.94 183.51,179.61 188.24,180.10 193.10,180.43 198.07,180.58 203.11,180.55 208.20,180.34 213.30,179.96 218.38,179.41 223.40,178.69 228.34,177.80 233.17,176.75 237.84,175.55 242.35,174.20 246.64,172.72 250.71,171.10 254.52,169.38 258.04,167.54 261.27,165.61 264.17,163.60 266.72,161.52 268.92,159.38 270.74,157.20 272.19,154.99 273.23,152.76 273.88,150.54 274.13,148.32 273.97,146.13 273.40,143.99 272.43,141.89 271.07,139.87 269.33,137.92 267.20,136.07 264.72,134.32 258.24,135.29 260.43,136.83 262.30,138.46 263.84,140.18 265.04,141.96 265.89,143.81 266.39,145.70 266.53,147.63 266.32,149.58 265.75,151.54 264.82,153.51 263.55,155.46 261.94,157.38 260.00,159.26 257.75,161.10 255.20,162.87 252.35,164.57 249.24,166.19 245.89,167.71 242.30,169.13 238.52,170.44 234.55,171.63 230.42,172.69 226.17,173.61 221.81,174.40 217.38,175.04 212.91,175.52 208.41,175.86 203.93,176.04 199.48,176.07 195.10,175.93 190.82,175.65 186.65,175.21 182.63,174.62 178.79,173.88 175.14,173.00 171.72,171.98 168.53,170.84 165.61,169.56 162.97,168.18 160.63,166.69 158.59,165.10 156.89,163.42 155.52,161.67 154.49,159.86 153.81,157.99 153.49,156.07 153.53,154.13 153.92,152.17 154.67,150.21 155.77,148.25 157.21,146.31 158.99,144.41 161.08,142.54 163.49,140.74 166.19,139.00 169.17,137.34 172.40,135.77 175.88,134.29 179.57,132.93 183.45,131.68 187.50,130.56 191.69,129.56 196.00,128.71 200.39,128.00 204.85,127.43 209.34,127.02 213.83,126.76 218.30,126.66 222.72,126.71 227.05,126.92 231.28,127.29 235.38,127.80 239.31,128.47 243.06,129.28 246.60,130.23 249.91,131.31 252.96,132.52 255.75,133.85 258.24,135.29" style="fill:#71d24a;stroke:#222;stroke-width:0.3;vector-effect:non-scaling-stroke;stroke-linecap:butt;stroke-linejoin:miter;"/><polygon points="258.24,126.91 255.75,125.47 252.96,124.14 249.91,122.93 246.60,121.85 243.06,120.90 239.31,120.09 235.38,119.43 231.28,118.91 227.05,118.55 222.72,118.34 218.30,118.28 213.83,118.39 209.34,118.65 204.85,119.06 200.39,119.62 196.00,120.33 191.69,121.19 187.50,122.18 183.45,123.30 179.57,124.55 175.88,125.92 172.40,127.39 169.17,128.96 166.19,130.62 163.49,132.36 161.08,134.17 158.99,136.03 157.21,137.94 155.77,139.87 154.67,141.83 153.92,143.80 153.53,145.75 153.49,147.70 153.81,149.61 154.49,151.48 155.52,153.30 156.89,155.05 158.59,156.72 160.63,158.31 162.97,159.80 165.61,161.19 168.53,162.46 171.72,163.61 175.14,164.62 178.79,165.50 182.63,166.24 186.65,166.83 190.82,167.27 195.10,167.56 199.48,167.69 203.93,167.66 208.41,167.48 212.91,167.15 217.38,166.66 221.81,166.02 226.17,165.24 230.42,164.31 234.55,163.25 238.52,162.07 242.30,160.76 245.89,159.34 249.24,157.81 252.35,156.20 255.20,154.50 257.75,152.72 260.00,150.89 261.94,149.00 263.55,147.08 264.82,145.13 265.75,143.17 266.32,141.20 266.53,139.25 266.39,137.32 265.89,135.43 265.04,133.58 263.84,131.80 262.30,130.08 260.43,128.45 258.24,126.91 251.76,127.85 253.66,129.19 255.28,130.60 256.61,132.09 257.65,133.63 258.38,135.23 258.82,136.87 258.94,138.54 258.75,140.23 258.26,141.93 257.46,143.63 256.36,145.31 254.96,146.98 253.29,148.61 251.34,150.20 249.12,151.73 246.66,153.21 243.97,154.61 241.07,155.92 237.96,157.15 234.68,158.29 231.25,159.31 227.68,160.23 224.00,161.03 220.23,161.71 216.39,162.26 212.52,162.69 208.63,162.98 204.74,163.13 200.89,163.15 197.10,163.04 193.39,162.79 189.79,162.41 186.31,161.90 182.98,161.26 179.83,160.50 176.86,159.62 174.10,158.63 171.57,157.53 169.29,156.33 167.26,155.04 165.50,153.66 164.02,152.21 162.83,150.69 161.95,149.12 161.36,147.50 161.08,145.85 161.12,144.17 161.46,142.47 162.10,140.77 163.06,139.07 164.30,137.40 165.84,135.75 167.65,134.14 169.74,132.57 172.08,131.07 174.65,129.63 177.45,128.27 180.46,126.99 183.65,125.81 187.01,124.73 190.52,123.76 194.15,122.90 197.88,122.16 201.68,121.54 205.54,121.06 209.43,120.70 213.32,120.47 217.19,120.39 221.01,120.43 224.76,120.61 228.42,120.93 231.97,121.37 235.37,121.95 238.62,122.65 241.68,123.47 244.55,124.41 247.19,125.46 249.60,126.61 251.76,127.85" style="fill:#cfe342;stroke:#222;stroke-width:0.3;vector-effect:non-scaling-stroke;stroke-linecap:butt;stroke-linejoin:miter;"/><polygon points="251.76,119.32 249.60,118.08 247.19,116.93 244.55,115.88 241.68,114.94 238.62,114.12 235.37,113.42 231.97,112.85 228.42,112.40 224.76,112.08 221.01,111.90 217.19,111.86 213.32,111.95 209.43,112.17 205.54,112.53 201.68,113.02 197.88,113.63 194.15,114.37 190.52,115.23 187.01,116.20 183.65,117.28 180.46,118.47 177.45,119.74 174.65,121.10 172.08,122.54 169.74,124.04 167.65,125.61 165.84,127.22 164.30,128.87 163.06,130.55 162.10,132.24 161.46,133.94 161.12,135.64 161.08,137.32 161.36,138.97 161.95,140.59 162.83,142.17 164.02,143.68 165.50,145.13 167.26,146.51 169.29,147.80 171.57,149.00 174.10,150.10 176.86,151.09 179.83,151.97 182.98,152.73 186.31,153.37 189.79,153.88 193.39,154.26 197.10,154.51 200.89,154.63 204.74,154.60 208.63,154.45 212.52,154.16 216.39,153.73 220.23,153.18 224.00,152.50 227.68,151.70 231.25,150.79 234.68,149.76 237.96,148.63 241.07,147.40 243.97,146.08 246.66,144.68 249.12,143.20 251.34,141.67 253.29,140.08 254.96,138.45 256.36,136.78 257.46,135.10 258.26,133.40 258.75,131.70 258.94,130.01 258.82,128.34 258.38,126.70 257.65,125.10 256.61,123.56 255.28,122.07 253.66,120.66 251.76,119.32 245.28,120.29 246.88,121.42 248.25,122.61 249.38,123.87 250.25,125.17 250.88,126.52 251.24,127.91 251.34,129.32 251.19,130.75 250.77,132.18 250.09,133.62 249.16,135.04 247.99,136.45 246.57,137.83 244.92,139.17 243.05,140.47 240.98,141.71 238.70,142.89 236.25,144.01 233.62,145.05 230.85,146.00 227.95,146.87 224.94,147.65 221.83,148.32 218.64,148.90 215.40,149.36 212.13,149.72 208.84,149.97 205.56,150.10 202.31,150.12 199.10,150.02 195.97,149.81 192.92,149.49 189.99,149.06 187.18,148.52 184.51,147.87 182.00,147.13 179.67,146.29 177.54,145.36 175.61,144.35 173.89,143.26 172.40,142.10 171.16,140.87 170.15,139.59 169.40,138.26 168.91,136.89 168.67,135.49 168.70,134.07 168.99,132.64 169.54,131.20 170.34,129.77 171.39,128.36 172.69,126.96 174.23,125.60 175.99,124.28 177.96,123.01 180.14,121.79 182.50,120.65 185.04,119.57 187.74,118.57 190.58,117.66 193.54,116.83 196.61,116.11 199.76,115.48 202.97,114.96 206.23,114.55 209.52,114.25 212.80,114.06 216.07,113.98 219.30,114.02 222.47,114.18 225.57,114.44 228.56,114.82 231.44,115.30 234.18,115.90 236.77,116.59 239.18,117.38 241.42,118.27 243.46,119.24 245.28,120.29" style="fill:#ffd23a;stroke:#222;stroke-width:0.3;vector-effect:non-scaling-stroke;stroke-linecap:butt;stroke-linejoin:miter;"/><polygon points="245.28,111.63 243.46,110.58 241.42,109.61 239.18,108.72 236.77,107.93 234.18,107.24 231.44,106.64 228.56,106.16 225.57,105.78 222.47,105.51 219.30,105.36 216.07,105.32 212.80,105.40 209.52,105.59 206.23,105.89 202.97,106.30 199.76,106.82 196.61,107.45 193.54,108.17 190.58,109.00 187.74,109.91 185.04,110.91 182.50,111.98 180.14,113.13 177.96,114.35 175.99,115.62 174.23,116.94 172.69,118.30 171.39,119.70 170.34,121.11 169.54,122.54 168.99,123.98 168.70,125.41 168.67,126.83 168.91,128.23 169.40,129.60 170.15,130.93 171.16,132.21 172.40,133.44 173.89,134.60 175.61,135.69 177.54,136.70 179.67,137.63 182.00,138.47 184.51,139.21 187.18,139.86 189.99,140.40 192.92,140.83 195.97,141.15 199.10,141.36 202.31,141.46 205.56,141.44 208.84,141.30 212.13,141.06 215.40,140.70 218.64,140.24 221.83,139.66 224.94,138.99 227.95,138.21 230.85,137.34 233.62,136.39 236.25,135.35 238.70,134.23 240.98,133.05 243.05,131.81 244.92,130.51 246.57,129.17 247.99,127.79 249.16,126.38 250.09,124.96 250.77,123.52 251.19,122.09 251.34,120.66 251.24,119.25 250.88,117.86 250.25,116.51 249.38,115.21 248.25,113.95 246.88,112.76 245.28,111.63 238.80,112.67 240.11,113.59 241.22,114.57 242.14,115.59 242.86,116.66 243.37,117.76 243.67,118.89 243.75,120.04 243.62,121.21 243.28,122.38 242.73,123.55 241.97,124.72 241.01,125.86 239.85,126.99 238.51,128.08 236.98,129.14 235.29,130.16 233.43,131.12 231.43,132.03 229.29,132.88 227.02,133.66 224.65,134.37 222.19,135.00 219.65,135.56 217.05,136.02 214.41,136.41 211.74,136.70 209.05,136.90 206.38,137.01 203.72,137.02 201.11,136.94 198.55,136.77 196.06,136.51 193.66,136.16 191.37,135.72 189.19,135.19 187.14,134.58 185.24,133.90 183.50,133.14 181.92,132.31 180.52,131.42 179.31,130.47 178.29,129.47 177.47,128.43 176.86,127.34 176.46,126.23 176.26,125.08 176.29,123.93 176.52,122.76 176.97,121.58 177.62,120.41 178.48,119.26 179.54,118.12 180.80,117.01 182.23,115.93 183.85,114.89 185.62,113.90 187.55,112.96 189.63,112.08 191.83,111.27 194.15,110.52 196.57,109.85 199.07,109.26 201.64,108.75 204.26,108.32 206.93,107.99 209.61,107.74 212.29,107.59 214.96,107.52 217.59,107.56 220.18,107.68 222.71,107.90 225.15,108.21 227.50,108.60 229.74,109.09 231.85,109.65 233.82,110.30 235.65,111.02 237.31,111.82 238.80,112.67" style="fill:#ff9c28;stroke:#222;stroke-width:0.3;vector-effect:non-scaling-stroke;stroke-linecap:butt;stroke-linejoin:miter;"/><polygon points="238.80,103.90 237.31,103.04 235.65,102.25 233.82,101.53 231.85,100.88 229.74,100.31 227.50,99.83 225.15,99.43 222.71,99.13 220.18,98.91 217.59,98.78 214.96,98.75 212.29,98.81 209.61,98.97 206.93,99.21 204.26,99.55 201.64,99.98 199.07,100.49 196.57,101.08 194.15,101.75 191.83,102.50 189.63,103.31 187.55,104.19 185.62,105.13 183.85,106.12 182.23,107.16 180.80,108.24 179.54,109.35 178.48,110.48 177.62,111.64 176.97,112.81 176.52,113.98 176.29,115.15 176.26,116.31 176.46,117.45 176.86,118.57 177.47,119.66 178.29,120.70 179.31,121.70 180.52,122.65 181.92,123.54 183.50,124.37 185.24,125.13 187.14,125.81 189.19,126.42 191.37,126.94 193.66,127.38 196.06,127.74 198.55,128.00 201.11,128.17 203.72,128.25 206.38,128.23 209.05,128.13 211.74,127.92 214.41,127.63 217.05,127.25 219.65,126.78 222.19,126.23 224.65,125.60 227.02,124.89 229.29,124.11 231.43,123.26 233.43,122.35 235.29,121.39 236.98,120.37 238.51,119.31 239.85,118.22 241.01,117.09 241.97,115.94 242.73,114.78 243.28,113.61 243.62,112.44 243.75,111.27 243.67,110.12 243.37,108.99 242.86,107.89 242.14,106.82 241.22,105.80 240.11,104.82 238.80,103.90 232.32,105.07 233.33,105.78 234.20,106.54 234.91,107.33 235.47,108.16 235.86,109.01 236.09,109.89 236.16,110.78 236.06,111.68 235.79,112.59 235.37,113.50 234.78,114.40 234.03,115.29 233.14,116.16 232.09,117.01 230.91,117.83 229.60,118.62 228.16,119.37 226.60,120.07 224.95,120.73 223.19,121.34 221.36,121.89 219.45,122.38 217.48,122.80 215.47,123.17 213.42,123.46 211.35,123.69 209.27,123.84 207.19,123.93 205.13,123.94 203.11,123.88 201.12,123.75 199.20,123.54 197.34,123.27 195.56,122.93 193.87,122.52 192.29,122.05 190.81,121.52 189.46,120.93 188.24,120.29 187.16,119.60 186.22,118.86 185.43,118.09 184.79,117.28 184.32,116.44 184.00,115.57 183.86,114.69 183.87,113.79 184.05,112.88 184.40,111.97 184.91,111.07 185.58,110.17 186.40,109.29 187.37,108.43 188.48,107.59 189.73,106.79 191.11,106.02 192.60,105.29 194.21,104.61 195.92,103.98 197.71,103.40 199.59,102.88 201.53,102.42 203.52,102.03 205.55,101.70 207.62,101.44 209.69,101.25 211.77,101.13 213.84,101.08 215.88,101.10 217.89,101.20 219.85,101.37 221.74,101.61 223.56,101.92 225.30,102.29 226.93,102.73 228.46,103.23 229.88,103.79 231.17,104.40 232.32,105.07" style="fill:#ff4e23;stroke:#222;stroke-width:0.3;vector-effect:non-scaling-stroke;stroke-linecap:butt;stroke-linejoin:miter;"/><polygon points="232.32,96.21 231.17,95.54 229.88,94.93 228.46,94.37 226.93,93.87 225.30,93.43 223.56,93.05 221.74,92.74 219.85,92.51 217.89,92.34 215.88,92.24 213.84,92.22 211.77,92.26 209.69,92.38 207.62,92.57 205.55,92.84 203.52,93.16 201.53,93.56 199.59,94.02 197.71,94.54 195.92,95.12 194.21,95.75 192.60,96.43 191.11,97.16 189.73,97.93 188.48,98.73 187.37,99.57 186.40,100.43 185.58,101.31 184.91,102.21 184.40,103.11 184.05,104.02 183.87,104.93 183.86,105.83 184.00,106.71 184.32,107.58 184.79,108.42 185.43,109.23 186.22,110.00 187.16,110.74 188.24,111.43 189.46,112.07 190.81,112.66 192.29,113.19 193.87,113.66 195.56,114.06 197.34,114.41 199.20,114.68 201.12,114.88 203.11,115.02 205.13,115.08 207.19,115.06 209.27,114.98 211.35,114.83 213.42,114.60 215.47,114.30 217.48,113.94 219.45,113.51 221.36,113.02 223.19,112.47 224.95,111.87 226.60,111.21 228.16,110.51 229.60,109.76 230.91,108.97 232.09,108.15 233.14,107.30 234.03,106.43 234.78,105.54 235.37,104.64 235.79,103.73 236.06,102.82 236.16,101.92 236.09,101.03 235.86,100.15 235.47,99.30 234.91,98.47 234.20,97.68 233.33,96.92 232.32,96.21 225.84,97.55 226.56,98.06 227.17,98.60 227.68,99.16 228.07,99.74 228.35,100.35 228.52,100.97 228.56,101.61 228.49,102.25 228.30,102.89 228.00,103.54 227.58,104.18 227.06,104.81 226.42,105.43 225.68,106.03 224.84,106.61 223.91,107.17 222.89,107.70 221.78,108.20 220.61,108.67 219.36,109.10 218.06,109.49 216.71,109.83 215.31,110.14 213.88,110.40 212.42,110.61 210.95,110.77 209.48,110.88 208.01,110.94 206.55,110.94 205.11,110.90 203.70,110.81 202.33,110.66 201.01,110.47 199.75,110.23 198.55,109.94 197.43,109.60 196.38,109.23 195.42,108.81 194.56,108.35 193.79,107.86 193.12,107.34 192.56,106.79 192.11,106.22 191.77,105.62 191.55,105.01 191.45,104.38 191.46,103.74 191.59,103.10 191.83,102.45 192.19,101.81 192.67,101.17 193.25,100.55 193.94,99.94 194.73,99.34 195.61,98.77 196.59,98.23 197.66,97.71 198.80,97.23 200.01,96.78 201.28,96.37 202.61,96.00 203.99,95.67 205.40,95.39 206.85,95.16 208.31,94.97 209.78,94.84 211.26,94.75 212.73,94.72 214.18,94.74 215.60,94.81 216.99,94.93 218.33,95.10 219.62,95.31 220.86,95.58 222.02,95.89 223.10,96.25 224.11,96.64 225.02,97.08 225.84,97.55" style="fill:#d70000;stroke:#222;stroke-width:0.3;vector-effect:non-scaling-stroke;stroke-linecap:butt;stroke-linejoin:miter;"/><polygon points="220.80,94.80 220.24,94.48 219.62,94.18 218.93,93.91 218.19,93.67 217.40,93.45 216.56,93.27 215.68,93.12 214.76,93.01 213.82,92.93 212.85,92.88 211.86,92.87 210.86,92.89 209.85,92.95 208.85,93.04 207.85,93.17 206.86,93.33 205.90,93.52 204.96,93.74 204.06,93.99 203.19,94.27 202.36,94.58 201.58,94.91 200.86,95.26 200.19,95.63 199.59,96.02 199.05,96.43 198.58,96.84 198.18,97.27 197.86,97.70 197.61,98.14 197.45,98.58 197.36,99.02 197.35,99.45 197.42,99.88 197.57,100.30 197.80,100.71 198.11,101.10 198.49,101.47 198.95,101.83 199.47,102.16 200.06,102.47 200.72,102.76 201.43,103.02 202.20,103.24 203.01,103.44 203.87,103.61 204.77,103.74 205.71,103.84 206.66,103.90 207.65,103.93 208.64,103.92 209.64,103.88 210.65,103.81 211.65,103.70 212.65,103.56 213.62,103.38 214.57,103.17 215.50,102.94 216.38,102.67 217.23,102.38 218.03,102.06 218.79,101.72 219.48,101.36 220.12,100.98 220.69,100.58 221.20,100.17 221.63,99.75 221.99,99.32 222.27,98.88 222.48,98.44 222.61,98.00 222.66,97.56 222.62,97.13 222.51,96.71 222.32,96.29 222.05,95.89 221.71,95.51 221.29,95.15 220.80,94.80" style="fill:#c40000;stroke:#222;stroke-width:0.3;vector-effect:non-scaling-stroke;stroke-linecap:butt;stroke-linejoin:miter;"/><text class="text small" x="130.00" y="288.00" text-anchor="middle" style="font-style:italic">x₁</text><text class="text small" x="306.00" y="270.00" text-anchor="middle" style="font-style:italic">x₂</text><text class="text tiny" x="75.00" y="170.00" text-anchor="middle" >0.3</text><text class="text tiny" x="70.00" y="205.00" text-anchor="middle" >0.2</text><text class="text tiny" x="70.00" y="240.00" text-anchor="middle" >0.1</text></svg>
