<svg xmlns="http://www.w3.org/2000/svg" viewBox="0 0 690 195" width="690" height="195" role="img" aria-labelledby="title desc">
  <title id="title">Comparación entre mejor subconjunto, ridge y lasso</title>
  <desc id="desc">Tres minigráficos muestran umbralización dura, contracción ridge y umbralización suave lasso.</desc>
  <rect x="0" y="0" width="690" height="195" fill="white"/>
  <g transform="translate(0,0)">
    <text x="120" y="28" text-anchor="middle" font-size="20" font-family="Arial, sans-serif" fill="#1d4ed8">Mejor subconjunto</text>
    <line x1="110" y1="50" x2="110" y2="170" stroke="#374151" stroke-width="2"/>
    <line x1="30" y1="110" x2="190" y2="110" stroke="#374151" stroke-width="2"/>
    <line x1="30" y1="170" x2="190" y2="50" stroke="#9ca3af" stroke-width="3"/>
    <path d="M30 110 H78 M78 110 L78 73 L145 50" fill="none" stroke="#ef4444" stroke-width="3" stroke-dasharray="7 6"/>
    <text x="141" y="94" font-size="16" font-family="Georgia, 'Times New Roman', serif" fill="#6b7280">|β̂(M)|</text>
    <text x="112" y="124" font-size="16" font-family="Arial, sans-serif" fill="#374151">(0,0)</text>
  </g>
  <g transform="translate(230,0)">
    <text x="120" y="28" text-anchor="middle" font-size="22" font-family="Arial, sans-serif" fill="#1d4ed8">Ridge</text>
    <line x1="110" y1="50" x2="110" y2="170" stroke="#374151" stroke-width="2"/>
    <line x1="30" y1="110" x2="190" y2="110" stroke="#374151" stroke-width="2"/>
    <line x1="30" y1="170" x2="190" y2="50" stroke="#9ca3af" stroke-width="3"/>
    <line x1="38" y1="148" x2="180" y2="68" stroke="#ef4444" stroke-width="3" stroke-dasharray="7 6"/>
    <text x="112" y="124" font-size="16" font-family="Arial, sans-serif" fill="#374151">(0,0)</text>
  </g>
  <g transform="translate(460,0)">
    <text x="120" y="28" text-anchor="middle" font-size="22" font-family="Arial, sans-serif" fill="#1d4ed8">Lasso</text>
    <line x1="110" y1="50" x2="110" y2="170" stroke="#374151" stroke-width="2"/>
    <line x1="30" y1="110" x2="190" y2="110" stroke="#374151" stroke-width="2"/>
    <line x1="30" y1="170" x2="190" y2="50" stroke="#9ca3af" stroke-width="3"/>
    <path d="M35 145 L82 110 H138 L185 73" fill="none" stroke="#ef4444" stroke-width="3" stroke-dasharray="7 6"/>
    <text x="112" y="124" font-size="16" font-family="Arial, sans-serif" fill="#374151">(0,0)</text>
  </g>
</svg>
