<svg xmlns="http://www.w3.org/2000/svg" viewBox="0 0 781 415" width="781" height="415" role="img" aria-labelledby="title desc">
  <title id="title">Gráfico de densidad de probabilidad</title>
  <desc id="desc">Una curva vectorizada de densidad de probabilidad con x en el eje horizontal de 0 a 16 y la densidad de probabilidad en el eje vertical de 0 a 0,3.</desc>
  <style>
    .bg { fill: #ffffff; }
    .grid { stroke: #9f9f9f; stroke-width: 1.15; stroke-dasharray: 1.6 2.2; stroke-linecap: round; }
    .axis { stroke: #111111; stroke-width: 3; stroke-linecap: square; }
    .tick { stroke: #111111; stroke-width: 1.4; }
    .tick-label { fill: #111111; font-family: Arial, Helvetica, sans-serif; font-size: 20px; }
    .axis-label { fill: #111111; font-family: Arial, Helvetica, sans-serif; font-size: 22px; font-weight: 700; }
    .curve { fill: none; stroke: #ce7163; stroke-width: 2.8; stroke-linecap: round; stroke-linejoin: round; }
  </style>
  <rect class="bg" width="100%" height="100%" />

  <g aria-hidden="true">
    <line class="grid" x1="185.00" y1="30.0" x2="185.00" y2="333.0" />
    <line class="grid" x1="266.00" y1="30.0" x2="266.00" y2="333.0" />
    <line class="grid" x1="347.00" y1="30.0" x2="347.00" y2="333.0" />
    <line class="grid" x1="428.00" y1="30.0" x2="428.00" y2="333.0" />
    <line class="grid" x1="509.00" y1="30.0" x2="509.00" y2="333.0" />
    <line class="grid" x1="590.00" y1="30.0" x2="590.00" y2="333.0" />
    <line class="grid" x1="671.00" y1="30.0" x2="671.00" y2="333.0" />
    <line class="grid" x1="752.00" y1="30.0" x2="752.00" y2="333.0" />
    <line class="grid" x1="104.0" y1="282.50" x2="752.0" y2="282.50" />
    <line class="grid" x1="104.0" y1="232.00" x2="752.0" y2="232.00" />
    <line class="grid" x1="104.0" y1="181.50" x2="752.0" y2="181.50" />
    <line class="grid" x1="104.0" y1="131.00" x2="752.0" y2="131.00" />
    <line class="grid" x1="104.0" y1="80.50" x2="752.0" y2="80.50" />
    <line class="grid" x1="104.0" y1="30.00" x2="752.0" y2="30.00" />
    <line class="grid" x1="104.0" y1="30.0" x2="752.0" y2="30.0" />
    <line class="grid" x1="752.0" y1="30.0" x2="752.0" y2="333.0" />
  </g>

  <g aria-hidden="true">
    <line class="axis" x1="104.0" y1="30.0" x2="104.0" y2="333.0" />
    <line class="axis" x1="104.0" y1="333.0" x2="752.0" y2="333.0" />
    <line class="tick" x1="104.00" y1="333.0" x2="104.00" y2="340.0" />
    <line class="tick" x1="185.00" y1="333.0" x2="185.00" y2="340.0" />
    <line class="tick" x1="266.00" y1="333.0" x2="266.00" y2="340.0" />
    <line class="tick" x1="347.00" y1="333.0" x2="347.00" y2="340.0" />
    <line class="tick" x1="428.00" y1="333.0" x2="428.00" y2="340.0" />
    <line class="tick" x1="509.00" y1="333.0" x2="509.00" y2="340.0" />
    <line class="tick" x1="590.00" y1="333.0" x2="590.00" y2="340.0" />
    <line class="tick" x1="671.00" y1="333.0" x2="671.00" y2="340.0" />
    <line class="tick" x1="752.00" y1="333.0" x2="752.00" y2="340.0" />
    <line class="tick" x1="97.0" y1="333.00" x2="104.0" y2="333.00" />
    <line class="tick" x1="97.0" y1="282.50" x2="104.0" y2="282.50" />
    <line class="tick" x1="97.0" y1="232.00" x2="104.0" y2="232.00" />
    <line class="tick" x1="97.0" y1="181.50" x2="104.0" y2="181.50" />
    <line class="tick" x1="97.0" y1="131.00" x2="104.0" y2="131.00" />
    <line class="tick" x1="97.0" y1="80.50" x2="104.0" y2="80.50" />
    <line class="tick" x1="97.0" y1="30.00" x2="104.0" y2="30.00" />
  </g>

  <polyline class="curve" points="104.00,333.00 106.03,333.00 108.05,333.00 110.08,333.00 112.10,332.99 114.12,332.92 116.15,332.69 118.17,332.15 120.20,331.09 122.22,329.29 124.25,326.54 126.28,322.67 128.30,317.56 130.32,311.16 132.35,303.48 134.38,294.56 136.40,284.52 138.43,273.48 140.45,261.61 142.47,249.07 144.50,236.04 146.53,222.69 148.55,209.19 150.57,195.71 152.60,182.38 154.62,169.33 156.65,156.67 158.68,144.50 160.70,132.90 162.72,121.94 164.75,111.66 166.78,102.11 168.80,93.31 170.82,85.26 172.85,77.99 174.88,71.49 176.90,65.74 178.93,60.74 180.95,56.47 182.97,52.89 185.00,49.98 187.02,47.72 189.05,46.07 191.07,45.00 193.10,44.48 195.12,44.47 197.15,44.95 199.18,45.86 201.20,47.20 203.23,48.91 205.25,50.98 207.27,53.37 209.30,56.06 211.32,59.01 213.35,62.19 215.38,65.60 217.40,69.20 219.43,72.96 221.45,76.88 223.48,80.92 225.50,85.07 227.52,89.32 229.55,93.65 231.57,98.04 233.60,102.47 235.62,106.94 237.65,111.44 239.68,115.95 241.70,120.47 243.72,124.97 245.75,129.47 247.78,133.94 249.80,138.39 251.82,142.80 253.85,147.17 255.88,151.50 257.90,155.77 259.93,160.00 261.95,164.16 263.98,168.27 266.00,172.32 268.02,176.29 270.05,180.21 272.08,184.05 274.10,187.83 276.12,191.53 278.15,195.16 280.17,198.73 282.20,202.21 284.23,205.63 286.25,208.97 288.27,212.24 290.30,215.44 292.33,218.56 294.35,221.62 296.38,224.60 298.40,227.51 300.42,230.36 302.45,233.13 304.48,235.84 306.50,238.48 308.52,241.05 310.55,243.56 312.58,246.01 314.60,248.39 316.62,250.71 318.65,252.97 320.67,255.18 322.70,257.32 324.73,259.41 326.75,261.44 328.77,263.42 330.80,265.35 332.83,267.22 334.85,269.04 336.88,270.82 338.90,272.54 340.92,274.22 342.95,275.85 344.98,277.44 347.00,278.98 349.02,280.48 351.05,281.94 353.08,283.36 355.10,284.74 357.12,286.07 359.15,287.38 361.18,288.64 363.20,289.87 365.23,291.07 367.25,292.23 369.27,293.36 371.30,294.46 373.32,295.52 375.35,296.56 377.38,297.57 379.40,298.54 381.43,299.49 383.45,300.42 385.48,301.32 387.50,302.19 389.52,303.03 391.55,303.86 393.57,304.66 395.60,305.43 397.62,306.19 399.65,306.92 401.68,307.64 403.70,308.33 405.73,309.00 407.75,309.65 409.77,310.29 411.80,310.91 413.82,311.51 415.85,312.09 417.88,312.65 419.90,313.20 421.93,313.74 423.95,314.26 425.98,314.76 428.00,315.25 430.03,315.73 432.05,316.19 434.07,316.64 436.10,317.08 438.12,317.51 440.15,317.92 442.18,318.32 444.20,318.71 446.22,319.09 448.25,319.46 450.28,319.82 452.30,320.17 454.32,320.51 456.35,320.84 458.38,321.16 460.40,321.47 462.43,321.77 464.45,322.06 466.47,322.35 468.50,322.63 470.53,322.90 472.55,323.16 474.57,323.42 476.60,323.67 478.62,323.91 480.65,324.14 482.68,324.37 484.70,324.60 486.72,324.81 488.75,325.02 490.78,325.23 492.80,325.43 494.82,325.62 496.85,325.81 498.88,325.99 500.90,326.17 502.93,326.34 504.95,326.51 506.97,326.68 509.00,326.84 511.03,326.99 513.05,327.14 515.08,327.29 517.10,327.44 519.12,327.58 521.15,327.71 523.17,327.84 525.20,327.97 527.22,328.10 529.25,328.22 531.28,328.34 533.30,328.45 535.33,328.57 537.35,328.68 539.38,328.78 541.40,328.89 543.42,328.99 545.45,329.09 547.47,329.18 549.50,329.28 551.53,329.37 553.55,329.45 555.58,329.54 557.60,329.63 559.62,329.71 561.65,329.79 563.67,329.86 565.70,329.94 567.72,330.01 569.75,330.09 571.78,330.16 573.80,330.22 575.83,330.29 577.85,330.36 579.88,330.42 581.90,330.48 583.92,330.54 585.95,330.60 587.97,330.66 590.00,330.71 592.03,330.76 594.05,330.82 596.08,330.87 598.10,330.92 600.12,330.97 602.15,331.02 604.17,331.06 606.20,331.11 608.22,331.15 610.25,331.19 612.28,331.24 614.30,331.28 616.33,331.32 618.35,331.36 620.38,331.39 622.40,331.43 624.42,331.47 626.45,331.50 628.48,331.54 630.50,331.57 632.52,331.60 634.55,331.63 636.58,331.67 638.60,331.70 640.62,331.73 642.65,331.75 644.67,331.78 646.70,331.81 648.73,331.84 650.75,331.86 652.77,331.89 654.80,331.91 656.83,331.94 658.85,331.96 660.88,331.98 662.90,332.01 664.92,332.03 666.95,332.05 668.98,332.07 671.00,332.09 673.02,332.11 675.05,332.13 677.08,332.15 679.10,332.17 681.12,332.19 683.15,332.21 685.17,332.22 687.20,332.24 689.23,332.26 691.25,332.27 693.27,332.29 695.30,332.30 697.33,332.32 699.35,332.33 701.38,332.35 703.40,332.36 705.42,332.38 707.45,332.39 709.48,332.40 711.50,332.42" />

  <g>
    <text class="tick-label" x="104.00" y="365" text-anchor="middle">0</text>
    <text class="tick-label" x="185.00" y="365" text-anchor="middle">2</text>
    <text class="tick-label" x="266.00" y="365" text-anchor="middle">4</text>
    <text class="tick-label" x="347.00" y="365" text-anchor="middle">6</text>
    <text class="tick-label" x="428.00" y="365" text-anchor="middle">8</text>
    <text class="tick-label" x="509.00" y="365" text-anchor="middle">10</text>
    <text class="tick-label" x="590.00" y="365" text-anchor="middle">12</text>
    <text class="tick-label" x="671.00" y="365" text-anchor="middle">14</text>
    <text class="tick-label" x="752.00" y="365" text-anchor="middle">16</text>
    <text class="tick-label" x="90" y="338.00" text-anchor="end">0</text>
    <text class="tick-label" x="90" y="287.50" text-anchor="end">0.05</text>
    <text class="tick-label" x="90" y="237.00" text-anchor="end">0.1</text>
    <text class="tick-label" x="90" y="186.50" text-anchor="end">0.15</text>
    <text class="tick-label" x="90" y="136.00" text-anchor="end">0.2</text>
    <text class="tick-label" x="90" y="85.50" text-anchor="end">0.25</text>
    <text class="tick-label" x="90" y="35.00" text-anchor="end">0.3</text>
    <text class="axis-label" x="428.00" y="400" text-anchor="middle">X</text>
    <text class="axis-label" x="24" y="181.50" transform="rotate(-90 24 181.50)" text-anchor="middle">Densidad de probabilidad</text>
  </g>
</svg>
